<?xml version="1.0" encoding="UTF-8" standalone="no"?>
<!DOCTYPE svg PUBLIC "-//W3C//DTD SVG 1.1//EN" "http://www.w3.org/Graphics/SVG/1.1/DTD/svg11.dtd">
<svg width="100%" height="100%" viewBox="0 0 780 690" version="1.1" xmlns="http://www.w3.org/2000/svg" xmlns:xlink="http://www.w3.org/1999/xlink" xml:space="preserve" xmlns:serif="http://www.serif.com/" style="fill-rule:evenodd;clip-rule:evenodd;stroke-linejoin:round;stroke-miterlimit:2;">
    <g id="Mesa-de-trabajo1" serif:id="Mesa de trabajo1" transform="matrix(1.0038,0,0,1.01265,-1.41457,-1.7244)">
        <rect x="1.409" y="1.703" width="777.047" height="681.38" style="fill:none;"/>
        <g transform="matrix(0.996214,0,0,0.987507,2.60281,4.35315)">
            <g>
                <g transform="matrix(1.36598,0,0,1.34914,-172.08,-0.110391)">
                    <path d="M170.926,507.178L657.087,507.178C680.124,507.191 702.152,477.978 690.682,455.871L438.197,18.202C424.71,-5.292 395.028,-5.997 381.258,18.202L132.196,455.871C114.99,486.107 147.888,506.867 170.926,507.178Z" style="fill:rgb(232,232,232);"/>
                </g>
                <g transform="matrix(1.36598,0,0,1.34914,-172.08,-0.110391)">
                    <path d="M463.073,123.669L358.143,123.669C337.34,123.669 320.32,140.689 320.32,161.493L320.32,251.374C320.32,272.178 337.34,289.198 358.143,289.198L463.073,289.198C483.876,289.198 500.897,272.178 500.897,251.374L500.897,161.493C500.897,140.689 483.876,123.669 463.073,123.669Z" style="fill:rgb(255,0,0);"/>
                </g>
                <g transform="matrix(1.36598,0,0,1.34914,-172.08,-0.110391)">
                    <path d="M308.634,331.206L308.634,336.231L318.293,336.231L318.293,341.738L302.745,341.738L302.745,315.87L317.957,315.87L317.957,321.376L308.634,321.376L308.634,325.848L317.62,325.848L317.62,331.206L308.634,331.206ZM347.909,315.87L351.342,341.738L345.554,341.738L343.736,327.289L338.082,341.738L334.986,341.738L329.332,327.215L327.481,341.738L321.726,341.738L325.159,315.87L330.241,315.87L336.568,332.13L342.895,315.87L347.909,315.87ZM361.674,331.206L361.674,336.231L371.333,336.231L371.333,341.738L355.785,341.738L355.785,315.87L370.997,315.87L370.997,321.376L361.674,321.376L361.674,325.848L370.66,325.848L370.66,331.206L361.674,331.206ZM389.406,341.738L382.978,332.943L381.733,332.943L381.733,341.738L375.843,341.738L375.843,315.87L384.459,315.87C386.321,315.87 387.948,316.227 389.339,316.942C390.73,317.656 391.807,318.666 392.57,319.972C393.332,321.278 393.714,322.78 393.714,324.48C393.714,326.18 393.332,327.671 392.57,328.952C391.807,330.232 390.719,331.218 389.305,331.908L396.541,341.738L389.406,341.738ZM381.733,321.302L381.733,327.621L384.19,327.621C385.311,327.621 386.181,327.326 386.798,326.734C387.415,326.143 387.723,325.392 387.723,324.48C387.723,323.544 387.415,322.78 386.798,322.189C386.181,321.598 385.311,321.302 384.19,321.302L381.733,321.302ZM409.431,327.326L422.32,327.326L422.32,328.878C422.32,331.391 421.81,333.663 420.789,335.696C419.768,337.728 418.321,339.323 416.448,340.481C414.574,341.639 412.392,342.218 409.902,342.218C407.658,342.218 405.577,341.664 403.659,340.555C401.741,339.447 400.209,337.87 399.065,335.825C397.921,333.78 397.349,331.44 397.349,328.804C397.349,326.168 397.921,323.827 399.065,321.782C400.209,319.738 401.741,318.161 403.659,317.052C405.577,315.944 407.658,315.389 409.902,315.389C412.818,315.389 415.376,316.215 417.575,317.866C419.773,319.516 421.288,321.807 422.118,324.739L415.859,324.739C414.49,322.349 412.526,321.154 409.969,321.154C408.69,321.154 407.546,321.493 406.536,322.17C405.527,322.848 404.742,323.772 404.18,324.942C403.62,326.112 403.339,327.424 403.339,328.878C403.339,330.356 403.62,331.674 404.18,332.832C404.742,333.99 405.532,334.901 406.553,335.566C407.574,336.231 408.746,336.564 410.07,336.564C411.573,336.564 412.858,336.195 413.923,335.456C414.989,334.716 415.757,333.707 416.229,332.425L409.431,332.425L409.431,327.326ZM432.282,331.206L432.282,336.231L441.941,336.231L441.941,341.738L426.392,341.738L426.392,315.87L441.604,315.87L441.604,321.376L432.282,321.376L432.282,325.848L441.268,325.848L441.268,331.206L432.282,331.206ZM463.009,331.464L463.009,315.87L468.663,315.87L468.663,341.738L464.557,341.738L452.105,326.217L452.105,341.738L446.451,341.738L446.451,315.87L450.523,315.87L463.009,331.464ZM485.289,342.218C483.045,342.218 480.964,341.664 479.046,340.555C477.127,339.447 475.596,337.87 474.452,335.825C473.307,333.78 472.735,331.44 472.735,328.804C472.735,326.168 473.307,323.827 474.452,321.782C475.596,319.738 477.127,318.161 479.046,317.052C480.964,315.944 483.045,315.389 485.289,315.389C487.218,315.389 489.013,315.796 490.673,316.609C492.334,317.422 493.753,318.598 494.931,320.138C496.108,321.678 496.933,323.482 497.404,325.552L491.279,325.552C490.785,324.271 490.017,323.242 488.974,322.466C487.93,321.69 486.713,321.302 485.322,321.302C484.088,321.302 482.966,321.628 481.957,322.281C480.947,322.934 480.156,323.827 479.584,324.961C479.012,326.094 478.726,327.375 478.726,328.804C478.726,330.232 479.012,331.514 479.584,332.647C480.156,333.78 480.947,334.673 481.957,335.326C482.966,335.979 484.088,336.306 485.322,336.306C486.758,336.306 487.992,335.917 489.024,335.142C490.056,334.365 490.819,333.324 491.313,332.019L497.404,332.019C496.933,334.113 496.114,335.93 494.947,337.47C493.78,339.009 492.367,340.186 490.707,340.999C489.046,341.812 487.24,342.218 485.289,342.218ZM507.871,325.515L512.178,315.87L518.472,315.87L510.731,331.76L510.731,341.738L504.842,341.738L504.842,331.76L497.169,315.87L503.563,315.87L507.871,325.515Z" style="fill:rgb(255,0,0);fill-rule:nonzero;"/>
                </g>
                <g transform="matrix(1.36598,0,0,1.34914,-172.08,-0.110391)">
                    <path d="M231.771,371.271C231.298,371.592 230.846,371.866 230.417,372.095C229.987,372.324 229.549,372.511 229.102,372.657C228.655,372.801 228.181,372.912 227.682,372.989C227.182,373.065 226.625,373.103 226.011,373.103C224.679,373.103 223.526,372.893 222.553,372.473C221.58,372.054 220.774,371.488 220.134,370.779C219.494,370.069 219.02,369.237 218.713,368.283C218.406,367.329 218.253,366.317 218.253,365.249C218.253,364.088 218.415,363.008 218.74,362.009C219.064,361.009 219.568,360.146 220.252,359.421C220.936,358.696 221.803,358.127 222.856,357.715C223.908,357.303 225.161,357.097 226.617,357.097C227.511,357.097 228.317,357.181 229.036,357.349C229.755,357.517 230.5,357.799 231.272,358.196L229.404,360.692C228.948,360.448 228.479,360.249 227.997,360.097C227.515,359.944 226.993,359.868 226.432,359.868C225.556,359.868 224.819,360.005 224.223,360.28C223.627,360.554 223.145,360.921 222.777,361.379C222.409,361.837 222.141,362.371 221.975,362.981C221.808,363.593 221.725,364.233 221.725,364.905C221.725,365.531 221.8,366.176 221.948,366.84C222.097,367.504 222.351,368.107 222.711,368.649C223.07,369.191 223.539,369.634 224.118,369.977C224.697,370.321 225.424,370.493 226.301,370.493C227.055,370.493 227.712,370.382 228.273,370.16C228.834,369.939 229.396,369.615 229.956,369.187L231.771,371.271ZM249.076,364.997C249.076,366.081 248.927,367.115 248.629,368.1C248.331,369.084 247.866,369.954 247.235,370.71C246.604,371.466 245.797,372.069 244.815,372.519C243.834,372.969 242.659,373.195 241.291,373.195C239.924,373.195 238.745,372.969 237.754,372.519C236.764,372.069 235.953,371.466 235.321,370.71C234.69,369.954 234.226,369.084 233.928,368.1C233.63,367.115 233.481,366.081 233.481,364.997C233.481,363.944 233.638,362.94 233.954,361.986C234.27,361.032 234.752,360.188 235.4,359.455C236.049,358.722 236.864,358.139 237.846,357.704C238.828,357.268 239.977,357.051 241.291,357.051C242.606,357.051 243.755,357.268 244.737,357.704C245.719,358.139 246.53,358.722 247.169,359.455C247.809,360.188 248.287,361.032 248.603,361.986C248.918,362.94 249.076,363.944 249.076,364.997ZM245.579,364.951C245.579,364.34 245.508,363.737 245.368,363.142C245.228,362.547 244.991,362.012 244.658,361.539C244.324,361.066 243.882,360.68 243.33,360.383C242.777,360.085 242.089,359.936 241.265,359.936C240.458,359.936 239.779,360.081 239.227,360.371C238.675,360.661 238.232,361.043 237.899,361.516C237.566,361.989 237.329,362.52 237.189,363.108C237.048,363.695 236.978,364.294 236.978,364.905C236.978,365.501 237.048,366.119 237.189,366.76C237.329,367.401 237.57,367.985 237.912,368.512C238.254,369.038 238.701,369.47 239.253,369.806C239.805,370.141 240.493,370.31 241.318,370.31C242.107,370.31 242.773,370.137 243.316,369.794C243.86,369.45 244.298,369.015 244.632,368.489C244.965,367.962 245.206,367.386 245.355,366.76C245.504,366.134 245.579,365.531 245.579,364.951ZM262.331,372.897L255.835,363.325L255.388,362.57L255.414,363.371L255.414,372.897L252.048,372.897L252.048,357.326L255.73,357.326L261.884,366.394L262.673,367.699L262.647,366.371L262.647,357.326L266.013,357.326L266.013,372.897L262.331,372.897ZM275.113,359.959L275.113,372.897L271.747,372.897L271.747,359.959L267.539,359.959L267.539,357.326L279.347,357.326L279.347,359.959L275.113,359.959ZM284.239,372.897L280.873,372.897L280.873,357.326L284.239,357.326L284.239,372.897ZM297.941,372.897L287.973,372.897L287.973,357.326L297.599,357.326L297.599,359.959L291.34,359.959L291.34,363.485L297.231,363.485L297.231,366.119L291.34,366.119L291.34,370.241L297.941,370.241L297.941,372.897ZM310.591,372.897L304.095,363.325L303.648,362.57L303.674,363.371L303.674,372.897L300.308,372.897L300.308,357.326L303.99,357.326L310.144,366.394L310.933,367.699L310.907,366.371L310.907,357.326L314.273,357.326L314.273,372.897L310.591,372.897ZM327.949,372.897L317.982,372.897L317.982,357.326L327.607,357.326L327.607,359.959L321.348,359.959L321.348,363.485L327.239,363.485L327.239,366.119L321.348,366.119L321.348,370.241L327.949,370.241L327.949,372.897ZM350.856,364.745C350.856,365.89 350.716,366.958 350.435,367.951C350.154,368.943 349.707,369.806 349.094,370.539C348.48,371.271 347.678,371.847 346.687,372.267C345.696,372.687 344.482,372.897 343.045,372.897L337.416,372.897L337.416,357.326L342.914,357.326C344.334,357.326 345.548,357.482 346.556,357.795C347.564,358.108 348.383,358.577 349.015,359.203C349.646,359.829 350.111,360.604 350.409,361.528C350.706,362.451 350.856,363.524 350.856,364.745ZM340.783,359.936L340.783,370.287L342.492,370.287C343.421,370.287 344.207,370.16 344.846,369.908C345.486,369.657 346.004,369.306 346.398,368.855C346.793,368.405 347.077,367.867 347.253,367.241C347.428,366.615 347.516,365.928 347.516,365.18C347.516,364.447 347.432,363.764 347.266,363.131C347.099,362.497 346.823,361.94 346.437,361.459C346.051,360.978 345.552,360.604 344.938,360.337C344.325,360.07 343.562,359.936 342.65,359.936L340.783,359.936ZM362.191,372.897L361.034,369.531L355.722,369.531L354.485,372.897L350.987,372.897L356.616,357.326L359.982,357.326L365.689,372.897L362.191,372.897ZM358.536,362.363L358.325,361.585L358.167,362.363L356.616,367.012L360.14,367.012L358.536,362.363ZM371.527,359.959L371.527,372.897L368.161,372.897L368.161,359.959L363.953,359.959L363.953,357.326L375.762,357.326L375.762,359.959L371.527,359.959ZM391.358,364.997C391.358,366.081 391.208,367.115 390.911,368.1C390.612,369.084 390.147,369.954 389.517,370.71C388.885,371.466 388.079,372.069 387.097,372.519C386.115,372.969 384.94,373.195 383.572,373.195C382.205,373.195 381.026,372.969 380.035,372.519C379.045,372.069 378.234,371.466 377.602,370.71C376.971,369.954 376.507,369.084 376.209,368.1C375.911,367.115 375.762,366.081 375.762,364.997C375.762,363.944 375.919,362.94 376.235,361.986C376.551,361.032 377.033,360.188 377.682,359.455C378.33,358.722 379.146,358.139 380.128,357.704C381.109,357.268 382.258,357.051 383.572,357.051C384.887,357.051 386.036,357.268 387.018,357.704C388,358.139 388.811,358.722 389.45,359.455C390.091,360.188 390.568,361.032 390.884,361.986C391.199,362.94 391.358,363.944 391.358,364.997ZM387.86,364.951C387.86,364.34 387.789,363.737 387.649,363.142C387.509,362.547 387.272,362.012 386.939,361.539C386.606,361.066 386.163,360.68 385.611,360.383C385.058,360.085 384.371,359.936 383.546,359.936C382.74,359.936 382.06,360.081 381.508,360.371C380.956,360.661 380.513,361.043 380.18,361.516C379.847,361.989 379.61,362.52 379.47,363.108C379.33,363.695 379.26,364.294 379.26,364.905C379.26,365.501 379.33,366.119 379.47,366.76C379.61,367.401 379.851,367.985 380.193,368.512C380.535,369.038 380.982,369.47 381.535,369.806C382.087,370.141 382.775,370.31 383.599,370.31C384.388,370.31 385.054,370.137 385.598,369.794C386.141,369.45 386.579,369.015 386.913,368.489C387.246,367.962 387.487,367.386 387.636,366.76C387.785,366.134 387.86,365.531 387.86,364.951ZM404.402,368.752C404.402,369.546 404.227,370.225 403.876,370.79C403.525,371.355 403.056,371.817 402.469,372.176C401.881,372.534 401.206,372.798 400.444,372.966C399.681,373.133 398.897,373.217 398.09,373.217C397.196,373.217 396.376,373.126 395.631,372.943C394.886,372.76 394.136,372.47 393.383,372.072L395.092,369.783C396.039,370.424 397.108,370.745 398.3,370.745C398.599,370.745 398.91,370.71 399.234,370.641C399.558,370.573 399.852,370.466 400.115,370.321C400.378,370.176 400.593,369.993 400.759,369.771C400.926,369.55 401.01,369.287 401.01,368.981C401.01,368.462 400.825,368.004 400.457,367.607C400.089,367.21 399.633,366.837 399.09,366.485C398.546,366.134 397.954,365.783 397.314,365.432C396.674,365.081 396.083,364.699 395.539,364.287C394.995,363.875 394.54,363.405 394.171,362.879C393.803,362.352 393.619,361.738 393.619,361.035C393.619,360.333 393.768,359.726 394.066,359.215C394.364,358.703 394.763,358.28 395.263,357.944C395.762,357.608 396.345,357.356 397.012,357.188C397.678,357.02 398.379,356.937 399.116,356.937C399.571,356.937 399.988,356.955 400.365,356.994C400.742,357.032 401.106,357.093 401.456,357.177C401.807,357.261 402.158,357.367 402.508,357.498C402.859,357.627 403.245,357.776 403.666,357.944L402.377,360.257C401.868,360.028 401.356,359.833 400.838,359.673C400.321,359.513 399.773,359.432 399.194,359.432C398.634,359.432 398.147,359.547 397.735,359.776C397.323,360.005 397.117,360.387 397.117,360.921C397.117,361.302 397.297,361.657 397.656,361.986C398.016,362.314 398.467,362.642 399.011,362.97C399.554,363.298 400.137,363.638 400.759,363.989C401.382,364.34 401.965,364.741 402.508,365.191C403.052,365.642 403.503,366.157 403.863,366.737C404.222,367.317 404.402,367.989 404.402,368.752ZM427.809,364.745C427.809,365.89 427.668,366.958 427.388,367.951C427.108,368.943 426.66,369.806 426.047,370.539C425.433,371.271 424.631,371.847 423.64,372.267C422.649,372.687 421.435,372.897 419.998,372.897L414.37,372.897L414.37,357.326L419.866,357.326C421.287,357.326 422.501,357.482 423.509,357.795C424.517,358.108 425.336,358.577 425.968,359.203C426.599,359.829 427.064,360.604 427.362,361.528C427.659,362.451 427.809,363.524 427.809,364.745ZM417.736,359.936L417.736,370.287L419.445,370.287C420.375,370.287 421.159,370.16 421.799,369.908C422.439,369.657 422.956,369.306 423.351,368.855C423.745,368.405 424.03,367.867 424.205,367.241C424.381,366.615 424.468,365.928 424.468,365.18C424.468,364.447 424.385,363.764 424.219,363.131C424.052,362.497 423.776,361.94 423.39,361.459C423.005,360.978 422.505,360.604 421.891,360.337C421.278,360.07 420.515,359.936 419.603,359.936L417.736,359.936ZM441.038,372.897L431.07,372.897L431.07,357.326L440.695,357.326L440.695,359.959L434.436,359.959L434.436,363.485L440.327,363.485L440.327,366.119L434.436,366.119L434.436,370.241L441.038,370.241L441.038,372.897ZM453.872,372.897L450.505,372.897L450.505,357.326L453.872,357.326L453.872,372.897ZM471.939,372.897L471.992,364.31L472.019,362.936L471.624,364.31L468.284,372.897L464.628,372.897L461.314,364.31L460.867,362.913L460.92,364.31L460.973,372.897L457.606,372.897L457.606,357.326L461.998,357.326L466.495,368.867L470.966,357.326L475.28,357.326L475.28,372.897L471.939,372.897ZM490.744,361.768C490.744,362.684 490.577,363.459 490.244,364.092C489.911,364.726 489.463,365.241 488.902,365.638C488.342,366.035 487.688,366.317 486.943,366.485C486.198,366.653 485.405,366.737 484.563,366.737L482.486,366.737L482.486,372.897L479.119,372.897L479.119,357.326L484.09,357.326C485.019,357.326 485.892,357.379 486.707,357.486C487.522,357.593 488.227,357.803 488.824,358.116C489.42,358.429 489.889,358.875 490.231,359.455C490.573,360.035 490.744,360.806 490.744,361.768ZM482.486,360.005L482.486,364.127L483.932,364.127C484.353,364.127 484.764,364.104 485.168,364.058C485.571,364.012 485.931,363.917 486.246,363.772C486.562,363.627 486.816,363.417 487.009,363.142C487.202,362.867 487.298,362.501 487.298,362.043C487.298,361.6 487.215,361.245 487.049,360.978C486.882,360.711 486.658,360.505 486.378,360.36C486.097,360.215 485.777,360.119 485.418,360.074C485.058,360.028 484.686,360.005 484.3,360.005L482.486,360.005ZM508.022,364.997C508.022,366.081 507.873,367.115 507.575,368.1C507.277,369.084 506.812,369.954 506.182,370.71C505.55,371.466 504.744,372.069 503.762,372.519C502.78,372.969 501.605,373.195 500.237,373.195C498.87,373.195 497.691,372.969 496.7,372.519C495.71,372.069 494.899,371.466 494.267,370.71C493.636,369.954 493.172,369.084 492.874,368.1C492.576,367.115 492.427,366.081 492.427,364.997C492.427,363.944 492.584,362.94 492.9,361.986C493.216,361.032 493.698,360.188 494.346,359.455C494.995,358.722 495.811,358.139 496.792,357.704C497.774,357.268 498.923,357.051 500.237,357.051C501.552,357.051 502.701,357.268 503.683,357.704C504.665,358.139 505.476,358.722 506.115,359.455C506.756,360.188 507.233,361.032 507.549,361.986C507.864,362.94 508.022,363.944 508.022,364.997ZM504.525,364.951C504.525,364.34 504.454,363.737 504.314,363.142C504.174,362.547 503.937,362.012 503.604,361.539C503.271,361.066 502.828,360.68 502.276,360.383C501.723,360.085 501.036,359.936 500.211,359.936C499.404,359.936 498.725,360.081 498.173,360.371C497.621,360.661 497.178,361.043 496.845,361.516C496.512,361.989 496.275,362.52 496.135,363.108C495.995,363.695 495.925,364.294 495.925,364.905C495.925,365.501 495.995,366.119 496.135,366.76C496.275,367.401 496.516,367.985 496.858,368.512C497.2,369.038 497.647,369.47 498.2,369.806C498.751,370.141 499.44,370.31 500.264,370.31C501.053,370.31 501.719,370.137 502.262,369.794C502.806,369.45 503.244,369.015 503.578,368.489C503.911,367.962 504.152,367.386 504.301,366.76C504.45,366.134 504.525,365.531 504.525,364.951ZM520.146,372.897L515.991,366.691L514.36,366.691L514.36,372.897L510.994,372.897L510.994,357.326L516.648,357.326C517.56,357.326 518.393,357.398 519.147,357.543C519.901,357.688 520.545,357.94 521.08,358.299C521.615,358.658 522.027,359.127 522.316,359.707C522.605,360.287 522.75,361.012 522.75,361.883C522.75,362.951 522.505,363.871 522.014,364.642C521.523,365.413 520.664,365.943 519.436,366.234L524.144,372.897L520.146,372.897ZM514.36,359.959L514.36,364.035L515.807,364.035C516.263,364.035 516.696,364.016 517.109,363.978C517.521,363.94 517.884,363.844 518.2,363.692C518.516,363.539 518.766,363.325 518.95,363.05C519.134,362.776 519.226,362.394 519.226,361.906C519.226,361.493 519.147,361.165 518.989,360.921C518.832,360.677 518.621,360.486 518.358,360.348C518.095,360.211 517.793,360.116 517.451,360.062C517.109,360.009 516.754,359.974 516.386,359.959L514.36,359.959ZM531.192,359.959L531.192,372.897L527.826,372.897L527.826,359.959L523.618,359.959L523.618,357.326L535.426,357.326L535.426,359.959L531.192,359.959ZM545.078,372.897L543.921,369.531L538.609,369.531L537.373,372.897L533.875,372.897L539.503,357.326L542.869,357.326L548.576,372.897L545.078,372.897ZM541.423,362.363L541.212,361.585L541.055,362.363L539.503,367.012L543.027,367.012L541.423,362.363ZM560.621,372.897L554.126,363.325L553.679,362.57L553.705,363.371L553.705,372.897L550.338,372.897L550.338,357.326L554.021,357.326L560.175,366.394L560.964,367.699L560.937,366.371L560.937,357.326L564.304,357.326L564.304,372.897L560.621,372.897ZM580.741,371.271C580.268,371.592 579.816,371.866 579.386,372.095C578.957,372.324 578.519,372.511 578.072,372.657C577.625,372.801 577.151,372.912 576.651,372.989C576.152,373.065 575.595,373.103 574.981,373.103C573.649,373.103 572.496,372.893 571.523,372.473C570.55,372.054 569.743,371.488 569.103,370.779C568.463,370.069 567.99,369.237 567.683,368.283C567.376,367.329 567.223,366.317 567.223,365.249C567.223,364.088 567.385,363.008 567.71,362.009C568.034,361.009 568.538,360.146 569.222,359.421C569.905,358.696 570.773,358.127 571.826,357.715C572.877,357.303 574.131,357.097 575.586,357.097C576.481,357.097 577.287,357.181 578.006,357.349C578.724,357.517 579.47,357.799 580.241,358.196L578.374,360.692C577.918,360.448 577.449,360.249 576.967,360.097C576.485,359.944 575.963,359.868 575.402,359.868C574.525,359.868 573.789,360.005 573.193,360.28C572.597,360.554 572.115,360.921 571.746,361.379C571.378,361.837 571.111,362.371 570.944,362.981C570.778,363.593 570.695,364.233 570.695,364.905C570.695,365.531 570.769,366.176 570.918,366.84C571.067,367.504 571.321,368.107 571.681,368.649C572.04,369.191 572.509,369.634 573.088,369.977C573.666,370.321 574.394,370.493 575.27,370.493C576.024,370.493 576.682,370.382 577.243,370.16C577.804,369.939 578.365,369.615 578.926,369.187L580.741,371.271ZM586.553,372.897L583.187,372.897L583.187,357.326L586.553,357.326L586.553,372.897ZM599.466,372.897L598.309,369.531L592.997,369.531L591.76,372.897L588.263,372.897L593.891,357.326L597.257,357.326L602.964,372.897L599.466,372.897ZM595.811,362.363L595.6,361.585L595.442,362.363L593.891,367.012L597.415,367.012L595.811,362.363Z" style="fill-rule:nonzero;"/>
                </g>
                <g transform="matrix(1.36598,0,0,1.34914,-172.08,-0.110391)">
                    <path d="M232.437,390.922L588.78,390.922C608.934,390.922 625.424,407.411 625.424,427.565L625.424,448.549C625.424,468.703 608.934,485.193 588.78,485.193L232.437,485.193C212.282,485.193 195.793,468.703 195.793,448.549L195.793,427.565C195.793,407.411 212.282,390.922 232.437,390.922Z" style="fill:rgb(255,237,0);"/>
                </g>
                <g transform="matrix(1.36598,0,0,1.34914,-172.08,-0.110391)">
                    <path d="M247.324,420.131L247.324,424.904L256.702,424.904L256.702,430.133L241.605,430.133L241.605,405.567L256.375,405.567L256.375,410.796L247.324,410.796L247.324,415.042L256.049,415.042L256.049,420.131L247.324,420.131ZM269.576,430.589C266.853,430.589 264.663,429.846 263.007,428.361C261.352,426.875 260.502,424.787 260.458,422.096L266.112,422.096C266.155,423.22 266.466,424.091 267.044,424.711C267.62,425.331 268.454,425.641 269.543,425.641C270.567,425.641 271.34,425.43 271.863,425.009C272.387,424.588 272.647,424.015 272.647,423.29C272.647,422.494 272.31,421.88 271.635,421.447C270.959,421.014 269.892,420.552 268.432,420.061C266.907,419.546 265.649,419.031 264.658,418.517C263.667,418.002 262.817,417.23 262.109,416.2C261.401,415.171 261.047,413.814 261.047,412.13C261.047,410.773 261.401,409.562 262.109,408.497C262.817,407.433 263.802,406.602 265.066,406.006C266.33,405.409 267.778,405.111 269.412,405.111C270.894,405.111 272.277,405.403 273.563,405.988C274.848,406.573 275.894,407.468 276.7,408.673C277.506,409.878 277.92,411.357 277.941,413.112L272.387,413.112C272.364,412.246 272.108,411.522 271.618,410.937C271.128,410.351 270.393,410.059 269.412,410.059C268.563,410.059 267.904,410.258 267.436,410.656C266.967,411.053 266.733,411.592 266.733,412.27C266.733,413.066 267.071,413.674 267.746,414.095C268.421,414.516 269.478,414.972 270.916,415.463C272.441,415.955 273.699,416.458 274.69,416.973C275.681,417.487 276.537,418.265 277.255,419.306C277.974,420.348 278.334,421.722 278.334,423.43C278.334,424.74 277.991,425.939 277.304,427.027C276.618,428.115 275.616,428.981 274.298,429.624C272.98,430.267 271.406,430.589 269.576,430.589ZM293.402,430.589C291.224,430.589 289.203,430.063 287.341,429.01C285.478,427.957 283.991,426.46 282.88,424.518C281.769,422.576 281.213,420.353 281.213,417.85C281.213,415.346 281.769,413.124 282.88,411.182C283.991,409.24 285.478,407.743 287.341,406.69C289.203,405.637 291.224,405.111 293.402,405.111C295.276,405.111 297.019,405.497 298.631,406.269C300.243,407.041 301.621,408.158 302.764,409.62C303.909,411.083 304.709,412.796 305.166,414.762L299.219,414.762C298.74,413.545 297.993,412.568 296.981,411.831C295.968,411.094 294.786,410.726 293.435,410.726C292.237,410.726 291.147,411.036 290.167,411.656C289.187,412.276 288.419,413.124 287.863,414.2C287.308,415.276 287.03,416.493 287.03,417.85C287.03,419.207 287.308,420.424 287.863,421.5C288.419,422.576 289.187,423.424 290.167,424.044C291.147,424.664 292.237,424.974 293.435,424.974C294.829,424.974 296.028,424.606 297.03,423.869C298.032,423.132 298.773,422.143 299.252,420.903L305.166,420.903C304.709,422.892 303.914,424.617 302.781,426.08C301.648,427.542 300.276,428.659 298.663,429.431C297.051,430.203 295.298,430.589 293.402,430.589ZM331.625,430.133L325.711,430.133L324.142,425.325L315.58,425.325L314.045,430.133L308.228,430.133L316.92,405.567L322.901,405.567L331.625,430.133ZM317.084,420.201L322.704,420.201L319.894,411.673L317.084,420.201ZM349.852,420.377L349.852,405.567L355.342,405.567L355.342,430.133L351.355,430.133L339.264,415.393L339.264,430.133L333.774,430.133L333.774,405.567L337.728,405.567L349.852,420.377ZM363.73,420.131L363.73,424.904L372.725,424.904L372.725,430.133L358.245,430.133L358.245,405.567L372.412,405.567L372.412,410.796L363.73,410.796L363.73,415.042L372.098,415.042L372.098,420.131L363.73,420.131ZM398.547,430.133L392.633,430.133L391.064,425.325L382.502,425.325L380.966,430.133L375.15,430.133L383.842,405.567L389.822,405.567L398.547,430.133ZM384.005,420.201L389.626,420.201L386.816,411.673L384.005,420.201ZM413.623,430.133L407.381,421.78L406.173,421.78L406.173,430.133L400.454,430.133L400.454,405.567L408.82,405.567C410.628,405.567 412.207,405.906 413.558,406.585C414.909,407.263 415.954,408.222 416.695,409.462C417.436,410.702 417.806,412.13 417.806,413.744C417.806,415.359 417.436,416.774 416.695,417.991C415.954,419.207 414.898,420.143 413.525,420.798L420.551,430.133L413.623,430.133ZM406.173,410.726L406.173,416.727L408.558,416.727C409.647,416.727 410.492,416.446 411.091,415.885C411.69,415.323 411.989,414.61 411.989,413.744C411.989,412.855 411.69,412.13 411.091,411.568C410.492,411.007 409.647,410.726 408.558,410.726L406.173,410.726ZM435.599,420.131L435.599,424.904L444.245,424.904L444.245,430.133L430.327,430.133L430.327,405.567L443.944,405.567L443.944,410.796L435.599,410.796L435.599,415.042L443.643,415.042L443.643,420.131L435.599,420.131ZM463.103,420.377L463.103,405.567L468.164,405.567L468.164,430.133L464.489,430.133L453.342,415.393L453.342,430.133L448.282,430.133L448.282,405.567L451.927,405.567L463.103,420.377ZM493.607,430.589C491.3,430.589 489.161,430.063 487.19,429.01C485.217,427.957 483.643,426.46 482.467,424.518C481.291,422.576 480.702,420.353 480.702,417.85C480.702,415.346 481.291,413.124 482.467,411.182C483.643,409.24 485.217,407.743 487.19,406.69C489.161,405.637 491.3,405.111 493.607,405.111C495.59,405.111 497.436,405.497 499.142,406.269C500.849,407.041 502.308,408.158 503.518,409.62C504.729,411.083 505.577,412.796 506.061,414.762L499.765,414.762C499.257,413.545 498.467,412.568 497.395,411.831C496.323,411.094 495.071,410.726 493.641,410.726C492.373,410.726 491.22,411.036 490.182,411.656C489.144,412.276 488.331,413.124 487.743,414.2C487.154,415.276 486.861,416.493 486.861,417.85C486.861,419.207 487.154,420.424 487.743,421.5C488.331,422.576 489.144,423.424 490.182,424.044C491.22,424.664 492.373,424.974 493.641,424.974C495.117,424.974 496.386,424.606 497.447,423.869C498.508,423.132 499.292,422.143 499.799,420.903L506.061,420.903C505.577,422.892 504.735,424.617 503.536,426.08C502.336,427.542 500.884,428.659 499.177,429.431C497.47,430.203 495.613,430.589 493.607,430.589ZM530.866,430.133L524.605,430.133L522.944,425.325L513.88,425.325L512.254,430.133L506.096,430.133L515.298,405.567L521.63,405.567L530.866,430.133ZM515.472,420.201L521.422,420.201L518.447,411.673L515.472,420.201ZM541.66,430.589C538.778,430.589 536.459,429.846 534.707,428.361C532.954,426.875 532.054,424.787 532.008,422.096L537.993,422.096C538.04,423.22 538.368,424.091 538.979,424.711C539.59,425.331 540.472,425.641 541.625,425.641C542.709,425.641 543.529,425.43 544.082,425.009C544.636,424.588 544.913,424.015 544.913,423.29C544.913,422.494 544.555,421.88 543.84,421.447C543.125,421.014 541.995,420.552 540.449,420.061C538.835,419.546 537.503,419.031 536.454,418.517C535.404,418.002 534.505,417.23 533.755,416.2C533.006,415.171 532.631,413.814 532.631,412.13C532.631,410.773 533.006,409.562 533.755,408.497C534.505,407.433 535.549,406.602 536.887,406.006C538.224,405.409 539.757,405.111 541.487,405.111C543.056,405.111 544.521,405.403 545.881,405.988C547.242,406.573 548.349,407.468 549.203,408.673C550.056,409.878 550.494,411.357 550.517,413.112L544.636,413.112C544.613,412.246 544.342,411.522 543.823,410.937C543.304,410.351 542.525,410.059 541.487,410.059C540.588,410.059 539.89,410.258 539.394,410.656C538.899,411.053 538.651,411.592 538.651,412.27C538.651,413.066 539.008,413.674 539.723,414.095C540.438,414.516 541.556,414.972 543.079,415.463C544.693,415.955 546.025,416.458 547.075,416.973C548.124,417.487 549.029,418.265 549.79,419.306C550.551,420.348 550.932,421.722 550.932,423.43C550.932,424.74 550.569,425.939 549.842,427.027C549.116,428.115 548.055,428.981 546.66,429.624C545.264,430.267 543.598,430.589 541.66,430.589ZM566.604,430.589C564.275,430.589 562.112,430.057 560.117,428.992C558.122,427.928 556.537,426.424 555.36,424.483C554.184,422.541 553.596,420.33 553.596,417.85C553.596,415.37 554.184,413.159 555.36,411.217C556.537,409.275 558.122,407.772 560.117,406.708C562.112,405.643 564.275,405.111 566.604,405.111C568.933,405.111 571.096,405.643 573.091,406.708C575.086,407.772 576.672,409.275 577.848,411.217C579.024,413.159 579.612,415.37 579.612,417.85C579.612,420.33 579.024,422.541 577.848,424.483C576.672,426.424 575.086,427.928 573.091,428.992C571.096,430.057 568.933,430.589 566.604,430.589ZM566.604,424.974C567.896,424.974 569.066,424.67 570.116,424.061C571.165,423.453 571.984,422.611 572.572,421.535C573.16,420.459 573.454,419.23 573.454,417.85C573.454,416.47 573.16,415.241 572.572,414.165C571.984,413.089 571.165,412.246 570.116,411.638C569.066,411.03 567.896,410.726 566.604,410.726C565.313,410.726 564.142,411.03 563.093,411.638C562.043,412.246 561.224,413.089 560.636,414.165C560.048,415.241 559.754,416.47 559.754,417.85C559.754,419.23 560.048,420.459 560.636,421.535C561.224,422.611 562.043,423.453 563.093,424.061C564.142,424.67 565.313,424.974 566.604,424.974ZM295.87,469.3L295.87,445.14L303.811,445.14C306.31,445.14 308.495,445.641 310.37,446.642C312.244,447.643 313.694,449.058 314.721,450.887C315.748,452.716 316.262,454.827 316.262,457.22C316.262,459.613 315.748,461.724 314.721,463.553C313.694,465.383 312.244,466.798 310.37,467.798C308.495,468.799 306.31,469.3 303.811,469.3L295.87,469.3ZM303.684,464.02C305.822,464.02 307.506,463.404 308.734,462.173C309.962,460.942 310.576,459.291 310.576,457.22C310.576,455.149 309.962,453.498 308.734,452.267C307.506,451.037 305.822,450.421 303.684,450.421L301.428,450.421L301.428,464.02L303.684,464.02ZM325.696,459.463L325.696,464.157L334.812,464.157L334.812,469.3L320.137,469.3L320.137,445.14L334.494,445.14L334.494,450.283L325.696,450.283L325.696,454.459L334.177,454.459L334.177,459.463L325.696,459.463ZM367.497,469.3L361.748,469.3L360.223,464.571L351.901,464.571L350.408,469.3L344.754,469.3L353.203,445.14L359.016,445.14L367.497,469.3ZM353.362,459.533L358.825,459.533L356.094,451.146L353.362,459.533ZM382.724,469.749C380.606,469.749 378.642,469.231 376.831,468.196C375.021,467.16 373.576,465.687 372.496,463.778C371.415,461.868 370.876,459.682 370.876,457.22C370.876,454.758 371.415,452.572 372.496,450.663C373.576,448.753 375.021,447.28 376.831,446.245C378.642,445.21 380.606,444.692 382.724,444.692C384.545,444.692 386.239,445.071 387.806,445.831C389.373,446.59 390.712,447.689 391.824,449.127C392.935,450.565 393.714,452.25 394.158,454.183L388.378,454.183C387.912,452.987 387.186,452.026 386.201,451.301C385.217,450.576 384.068,450.214 382.755,450.214C381.591,450.214 380.532,450.519 379.579,451.129C378.626,451.738 377.88,452.572 377.339,453.631C376.799,454.689 376.53,455.886 376.53,457.22C376.53,458.555 376.799,459.751 377.339,460.81C377.88,461.868 378.626,462.702 379.579,463.312C380.532,463.922 381.591,464.226 382.755,464.226C384.11,464.226 385.275,463.864 386.249,463.139C387.223,462.415 387.944,461.442 388.409,460.223L394.158,460.223C393.714,462.178 392.941,463.876 391.84,465.314C390.739,466.752 389.404,467.85 387.837,468.61C386.27,469.369 384.566,469.749 382.724,469.749ZM409.42,469.749C407.302,469.749 405.338,469.231 403.528,468.196C401.717,467.16 400.272,465.687 399.192,463.778C398.112,461.868 397.572,459.682 397.572,457.22C397.572,454.758 398.112,452.572 399.192,450.663C400.272,448.753 401.717,447.28 403.528,446.245C405.338,445.21 407.302,444.692 409.42,444.692C411.241,444.692 412.935,445.071 414.502,445.831C416.069,446.59 417.408,447.689 418.52,449.127C419.631,450.565 420.41,452.25 420.855,454.183L415.074,454.183C414.608,452.987 413.882,452.026 412.898,451.301C411.913,450.576 410.764,450.214 409.452,450.214C408.287,450.214 407.228,450.519 406.275,451.129C405.322,451.738 404.576,452.572 404.036,453.631C403.495,454.689 403.226,455.886 403.226,457.22C403.226,458.555 403.495,459.751 404.036,460.81C404.576,461.868 405.322,462.702 406.275,463.312C407.228,463.922 408.287,464.226 409.452,464.226C410.807,464.226 411.972,463.864 412.946,463.139C413.919,462.415 414.64,461.442 415.105,460.223L420.855,460.223C420.41,462.178 419.637,463.876 418.536,465.314C417.435,466.752 416.101,467.85 414.533,468.61C412.966,469.369 411.262,469.749 409.42,469.749ZM429.593,469.3L424.034,469.3L424.034,445.14L429.593,445.14L429.593,469.3ZM433.469,469.3L433.469,445.14L441.41,445.14C443.908,445.14 446.095,445.641 447.969,446.642C449.843,447.643 451.294,449.058 452.321,450.887C453.348,452.716 453.861,454.827 453.861,457.22C453.861,459.613 453.348,461.724 452.321,463.553C451.294,465.383 449.843,466.798 447.969,467.798C446.095,468.799 443.908,469.3 441.41,469.3L433.469,469.3ZM441.282,464.02C443.421,464.02 445.105,463.404 446.333,462.173C447.561,460.942 448.175,459.291 448.175,457.22C448.175,455.149 447.561,453.498 446.333,452.267C445.105,451.037 443.421,450.421 441.282,450.421L439.027,450.421L439.027,464.02L441.282,464.02ZM462.344,459.463L462.344,464.157L471.461,464.157L471.461,469.3L456.786,469.3L456.786,445.14L471.143,445.14L471.143,450.283L462.344,450.283L462.344,454.459L470.825,454.459L470.825,459.463L462.344,459.463ZM489.751,459.705L489.751,445.14L494.514,445.14L494.514,469.3L491.056,469.3L480.566,454.804L480.566,469.3L475.803,469.3L475.803,445.14L479.234,445.14L489.751,459.705ZM509.737,469.3L504.178,469.3L504.178,450.594L498.715,450.594L498.715,445.14L515.137,445.14L515.137,450.594L509.737,450.594L509.737,469.3ZM523.935,459.463L523.935,464.157L533.052,464.157L533.052,469.3L518.377,469.3L518.377,445.14L532.734,445.14L532.734,450.283L523.935,450.283L523.935,454.459L532.416,454.459L532.416,459.463L523.935,459.463Z" style="fill:rgb(255,0,0);fill-rule:nonzero;"/>
                </g>
            </g>
        </g>
    </g>
</svg>
