<?xml version="1.0" encoding="UTF-8" standalone="no"?>
<!DOCTYPE svg PUBLIC "-//W3C//DTD SVG 1.1//EN" "http://www.w3.org/Graphics/SVG/1.1/DTD/svg11.dtd">
<svg width="100%" height="100%" viewBox="0 0 600 600" version="1.1" xmlns="http://www.w3.org/2000/svg" xmlns:xlink="http://www.w3.org/1999/xlink" xml:space="preserve" xmlns:serif="http://www.serif.com/" style="fill-rule:evenodd;clip-rule:evenodd;stroke-linecap:round;stroke-linejoin:round;stroke-miterlimit:1.5;">
    <g transform="matrix(1,0,0,1,3.79243,-7.10543e-15)">
        <rect x="40.333" y="23.349" width="511.75" height="567.41" style="fill:rgb(255,146,59);"/>
    </g>
    <g transform="matrix(1,0,0,1,181.711,431.515)">
        <g>
            <path d="M2.619,0L2.619,-25.77L21.727,-25.77L21.727,-21.41L7.822,-21.41L7.822,-15.697L20.76,-15.697L20.76,-11.355L7.822,-11.355L7.822,-4.342L22.219,-4.342L22.219,0L2.619,0Z" style="fill:rgb(220,0,0);fill-rule:nonzero;"/>
            <path d="M26.561,0L26.561,-25.77L34.348,-25.77L39.023,-8.191L43.646,-25.77L51.451,-25.77L51.451,0L46.617,0L46.617,-20.285L41.502,0L36.492,0L31.395,-20.285L31.395,0L26.561,0Z" style="fill:rgb(220,0,0);fill-rule:nonzero;"/>
            <path d="M56.619,0L56.619,-25.77L75.727,-25.77L75.727,-21.41L61.822,-21.41L61.822,-15.697L74.76,-15.697L74.76,-11.355L61.822,-11.355L61.822,-4.342L76.219,-4.342L76.219,0L56.619,0Z" style="fill:rgb(220,0,0);fill-rule:nonzero;"/>
            <path d="M80.648,0L80.648,-25.77L91.6,-25.77C94.354,-25.77 96.354,-25.538 97.603,-25.075C98.851,-24.612 99.85,-23.789 100.6,-22.605C101.35,-21.422 101.725,-20.068 101.725,-18.545C101.725,-16.611 101.156,-15.015 100.02,-13.755C98.883,-12.495 97.184,-11.701 94.922,-11.373C96.047,-10.717 96.976,-9.996 97.708,-9.211C98.44,-8.426 99.428,-7.031 100.67,-5.027L103.816,0L97.594,0L93.832,-5.607C92.496,-7.611 91.582,-8.874 91.09,-9.396C90.598,-9.917 90.076,-10.274 89.525,-10.468C88.975,-10.661 88.102,-10.758 86.906,-10.758L85.852,-10.758L85.852,0L80.648,0ZM85.852,-14.871L89.701,-14.871C92.197,-14.871 93.756,-14.977 94.377,-15.188C94.998,-15.398 95.484,-15.762 95.836,-16.277C96.188,-16.793 96.363,-17.438 96.363,-18.211C96.363,-19.078 96.132,-19.778 95.669,-20.312C95.206,-20.845 94.553,-21.182 93.709,-21.322C93.287,-21.381 92.021,-21.41 89.912,-21.41L85.852,-21.41L85.852,-14.871Z" style="fill:rgb(220,0,0);fill-rule:nonzero;"/>
            <path d="M118.617,-9.475L118.617,-13.816L129.832,-13.816L129.832,-3.551C128.742,-2.496 127.163,-1.567 125.095,-0.765C123.026,0.038 120.932,0.439 118.811,0.439C116.115,0.439 113.766,-0.126 111.762,-1.257C109.758,-2.388 108.252,-4.005 107.244,-6.108C106.236,-8.212 105.732,-10.5 105.732,-12.973C105.732,-15.656 106.295,-18.041 107.42,-20.127C108.545,-22.213 110.191,-23.813 112.359,-24.926C114.012,-25.781 116.068,-26.209 118.529,-26.209C121.729,-26.209 124.228,-25.538 126.026,-24.196C127.825,-22.854 128.982,-21 129.498,-18.633L124.33,-17.666C123.967,-18.932 123.284,-19.931 122.282,-20.663C121.28,-21.396 120.029,-21.762 118.529,-21.762C116.256,-21.762 114.448,-21.041 113.106,-19.6C111.765,-18.158 111.094,-16.02 111.094,-13.184C111.094,-10.125 111.773,-7.831 113.133,-6.302C114.492,-4.772 116.273,-4.008 118.477,-4.008C119.566,-4.008 120.659,-4.222 121.755,-4.649C122.851,-5.077 123.791,-5.596 124.576,-6.205L124.576,-9.475L118.617,-9.475Z" style="fill:rgb(220,0,0);fill-rule:nonzero;"/>
            <path d="M134.631,0L134.631,-25.77L153.738,-25.77L153.738,-21.41L139.834,-21.41L139.834,-15.697L152.771,-15.697L152.771,-11.355L139.834,-11.355L139.834,-4.342L154.23,-4.342L154.23,0L134.631,0Z" style="fill:rgb(220,0,0);fill-rule:nonzero;"/>
            <path d="M158.695,0L158.695,-25.77L163.758,-25.77L174.305,-8.561L174.305,-25.77L179.139,-25.77L179.139,0L173.918,0L163.529,-16.805L163.529,0L158.695,0Z" style="fill:rgb(220,0,0);fill-rule:nonzero;"/>
            <path d="M201.129,-9.475L206.174,-7.875C205.4,-5.063 204.114,-2.974 202.315,-1.608C200.517,-0.243 198.234,0.439 195.469,0.439C192.047,0.439 189.234,-0.729 187.031,-3.067C184.828,-5.405 183.727,-8.602 183.727,-12.656C183.727,-16.945 184.834,-20.276 187.049,-22.649C189.264,-25.022 192.176,-26.209 195.785,-26.209C198.938,-26.209 201.498,-25.277 203.467,-23.414C204.639,-22.313 205.518,-20.73 206.104,-18.668L200.953,-17.438C200.648,-18.773 200.013,-19.828 199.046,-20.602C198.079,-21.375 196.904,-21.762 195.521,-21.762C193.611,-21.762 192.062,-21.076 190.872,-19.705C189.683,-18.334 189.088,-16.113 189.088,-13.043C189.088,-9.785 189.674,-7.465 190.846,-6.082C192.018,-4.699 193.541,-4.008 195.416,-4.008C196.799,-4.008 197.988,-4.447 198.984,-5.326C199.98,-6.205 200.695,-7.588 201.129,-9.475Z" style="fill:rgb(220,0,0);fill-rule:nonzero;"/>
            <path d="M217.406,0L217.406,-10.846L207.967,-25.77L214.066,-25.77L220.131,-15.574L226.072,-25.77L232.066,-25.77L222.592,-10.811L222.592,0L217.406,0Z" style="fill:rgb(220,0,0);fill-rule:nonzero;"/>
        </g>
    </g>
    <g transform="matrix(1,0,0,1,48.2611,143.477)">
        <g transform="matrix(1,0,0,1,36.931,327.462)">
            <path d="M12.738,-6.316L16.102,-5.25C15.586,-3.375 14.729,-1.982 13.529,-1.072C12.33,-0.162 10.809,0.293 8.965,0.293C6.684,0.293 4.809,-0.486 3.34,-2.045C1.871,-3.604 1.137,-5.734 1.137,-8.438C1.137,-11.297 1.875,-13.518 3.352,-15.1C4.828,-16.682 6.77,-17.473 9.176,-17.473C11.277,-17.473 12.984,-16.852 14.297,-15.609C15.078,-14.875 15.664,-13.82 16.055,-12.445L12.621,-11.625C12.418,-12.516 11.994,-13.219 11.35,-13.734C10.705,-14.25 9.922,-14.508 9,-14.508C7.727,-14.508 6.693,-14.051 5.9,-13.137C5.107,-12.223 4.711,-10.742 4.711,-8.695C4.711,-6.523 5.102,-4.977 5.883,-4.055C6.664,-3.133 7.68,-2.672 8.93,-2.672C9.852,-2.672 10.645,-2.965 11.309,-3.551C11.973,-4.137 12.449,-5.059 12.738,-6.316Z" style="fill-rule:nonzero;"/>
            <path d="M18.375,-8.484C18.375,-10.234 18.637,-11.703 19.16,-12.891C19.551,-13.766 20.084,-14.551 20.76,-15.246C21.436,-15.941 22.176,-16.457 22.98,-16.793C24.051,-17.246 25.285,-17.473 26.684,-17.473C29.215,-17.473 31.24,-16.688 32.76,-15.117C34.279,-13.547 35.039,-11.363 35.039,-8.566C35.039,-5.793 34.285,-3.623 32.777,-2.057C31.27,-0.49 29.254,0.293 26.73,0.293C24.176,0.293 22.145,-0.486 20.637,-2.045C19.129,-3.604 18.375,-5.75 18.375,-8.484ZM21.949,-8.602C21.949,-6.656 22.398,-5.182 23.297,-4.178C24.195,-3.174 25.336,-2.672 26.719,-2.672C28.102,-2.672 29.236,-3.17 30.123,-4.166C31.01,-5.162 31.453,-6.656 31.453,-8.648C31.453,-10.617 31.021,-12.086 30.158,-13.055C29.295,-14.023 28.148,-14.508 26.719,-14.508C25.289,-14.508 24.137,-14.018 23.262,-13.037C22.387,-12.057 21.949,-10.578 21.949,-8.602Z" style="fill-rule:nonzero;"/>
            <path d="M37.781,0L37.781,-17.18L41.156,-17.18L48.188,-5.707L48.188,-17.18L51.41,-17.18L51.41,0L47.93,0L41.004,-11.203L41.004,0L37.781,0Z" style="fill-rule:nonzero;"/>
            <path d="M58.945,0L58.945,-14.273L53.848,-14.273L53.848,-17.18L67.5,-17.18L67.5,-14.273L62.414,-14.273L62.414,0L58.945,0Z" style="fill-rule:nonzero;"/>
            <rect x="69.633" y="-17.18" width="3.469" height="17.18"/>
            <path d="M76.406,0L76.406,-17.18L89.145,-17.18L89.145,-14.273L79.875,-14.273L79.875,-10.465L88.5,-10.465L88.5,-7.57L79.875,-7.57L79.875,-2.895L89.473,-2.895L89.473,0L76.406,0Z" style="fill-rule:nonzero;"/>
            <path d="M92.449,0L92.449,-17.18L95.824,-17.18L102.855,-5.707L102.855,-17.18L106.078,-17.18L106.078,0L102.598,0L95.672,-11.203L95.672,0L92.449,0Z" style="fill-rule:nonzero;"/>
            <path d="M109.746,0L109.746,-17.18L122.484,-17.18L122.484,-14.273L113.215,-14.273L113.215,-10.465L121.84,-10.465L121.84,-7.57L113.215,-7.57L113.215,-2.895L122.813,-2.895L122.813,0L109.746,0Z" style="fill-rule:nonzero;"/>
            <path d="M132.41,-17.18L138.75,-17.18C140.18,-17.18 141.27,-17.07 142.02,-16.852C143.027,-16.555 143.891,-16.027 144.609,-15.27C145.328,-14.512 145.875,-13.584 146.25,-12.486C146.625,-11.389 146.813,-10.035 146.813,-8.426C146.813,-7.012 146.637,-5.793 146.285,-4.77C145.855,-3.52 145.242,-2.508 144.445,-1.734C143.844,-1.148 143.031,-0.691 142.008,-0.363C141.242,-0.121 140.219,0 138.938,0L132.41,0L132.41,-17.18ZM135.879,-14.273L135.879,-2.895L138.469,-2.895C139.438,-2.895 140.137,-2.949 140.566,-3.059C141.129,-3.199 141.596,-3.438 141.967,-3.773C142.338,-4.109 142.641,-4.662 142.875,-5.432C143.109,-6.201 143.227,-7.25 143.227,-8.578C143.227,-9.906 143.109,-10.926 142.875,-11.637C142.641,-12.348 142.313,-12.902 141.891,-13.301C141.469,-13.699 140.934,-13.969 140.285,-14.109C139.801,-14.219 138.852,-14.273 137.438,-14.273L135.879,-14.273Z" style="fill-rule:nonzero;"/>
            <path d="M165.246,0L161.473,0L159.973,-3.902L153.105,-3.902L151.688,0L148.008,0L154.699,-17.18L158.367,-17.18L165.246,0ZM158.859,-6.797L156.492,-13.172L154.172,-6.797L158.859,-6.797Z" style="fill-rule:nonzero;"/>
        </g>
        <g transform="matrix(1,0,0,1,200.49,327.462)">
            <path d="M5.613,0L5.613,-14.273L0.516,-14.273L0.516,-17.18L14.168,-17.18L14.168,-14.273L9.082,-14.273L9.082,0L5.613,0Z" style="fill-rule:nonzero;"/>
            <path d="M15.27,-8.484C15.27,-10.234 15.531,-11.703 16.055,-12.891C16.445,-13.766 16.979,-14.551 17.654,-15.246C18.33,-15.941 19.07,-16.457 19.875,-16.793C20.945,-17.246 22.18,-17.473 23.578,-17.473C26.109,-17.473 28.135,-16.688 29.654,-15.117C31.174,-13.547 31.934,-11.363 31.934,-8.566C31.934,-5.793 31.18,-3.623 29.672,-2.057C28.164,-0.49 26.148,0.293 23.625,0.293C21.07,0.293 19.039,-0.486 17.531,-2.045C16.023,-3.604 15.27,-5.75 15.27,-8.484ZM18.844,-8.602C18.844,-6.656 19.293,-5.182 20.191,-4.178C21.09,-3.174 22.23,-2.672 23.613,-2.672C24.996,-2.672 26.131,-3.17 27.018,-4.166C27.904,-5.162 28.348,-6.656 28.348,-8.648C28.348,-10.617 27.916,-12.086 27.053,-13.055C26.189,-14.023 25.043,-14.508 23.613,-14.508C22.184,-14.508 21.031,-14.018 20.156,-13.037C19.281,-12.057 18.844,-10.578 18.844,-8.602Z" style="fill-rule:nonzero;"/>
            <path d="M33.762,-5.59L37.137,-5.918C37.34,-4.785 37.752,-3.953 38.373,-3.422C38.994,-2.891 39.832,-2.625 40.887,-2.625C42.004,-2.625 42.846,-2.861 43.412,-3.334C43.979,-3.807 44.262,-4.359 44.262,-4.992C44.262,-5.398 44.143,-5.744 43.904,-6.029C43.666,-6.314 43.25,-6.563 42.656,-6.773C42.25,-6.914 41.324,-7.164 39.879,-7.523C38.02,-7.984 36.715,-8.551 35.965,-9.223C34.91,-10.168 34.383,-11.32 34.383,-12.68C34.383,-13.555 34.631,-14.373 35.127,-15.135C35.623,-15.896 36.338,-16.477 37.271,-16.875C38.205,-17.273 39.332,-17.473 40.652,-17.473C42.809,-17.473 44.432,-17 45.521,-16.055C46.611,-15.109 47.184,-13.848 47.238,-12.27L43.77,-12.117C43.621,-13 43.303,-13.635 42.814,-14.021C42.326,-14.408 41.594,-14.602 40.617,-14.602C39.609,-14.602 38.82,-14.395 38.25,-13.98C37.883,-13.715 37.699,-13.359 37.699,-12.914C37.699,-12.508 37.871,-12.16 38.215,-11.871C38.652,-11.504 39.715,-11.121 41.402,-10.723C43.09,-10.324 44.338,-9.912 45.146,-9.486C45.955,-9.061 46.588,-8.479 47.045,-7.74C47.502,-7.002 47.73,-6.09 47.73,-5.004C47.73,-4.02 47.457,-3.098 46.91,-2.238C46.363,-1.379 45.59,-0.74 44.59,-0.322C43.59,0.096 42.344,0.305 40.852,0.305C38.68,0.305 37.012,-0.197 35.848,-1.201C34.684,-2.205 33.988,-3.668 33.762,-5.59Z" style="fill-rule:nonzero;"/>
            <path d="M57.305,-17.18L63.645,-17.18C65.074,-17.18 66.164,-17.07 66.914,-16.852C67.922,-16.555 68.785,-16.027 69.504,-15.27C70.223,-14.512 70.77,-13.584 71.145,-12.486C71.52,-11.389 71.707,-10.035 71.707,-8.426C71.707,-7.012 71.531,-5.793 71.18,-4.77C70.75,-3.52 70.137,-2.508 69.34,-1.734C68.738,-1.148 67.926,-0.691 66.902,-0.363C66.137,-0.121 65.113,0 63.832,0L57.305,0L57.305,-17.18ZM60.773,-14.273L60.773,-2.895L63.363,-2.895C64.332,-2.895 65.031,-2.949 65.461,-3.059C66.023,-3.199 66.49,-3.438 66.861,-3.773C67.232,-4.109 67.535,-4.662 67.77,-5.432C68.004,-6.201 68.121,-7.25 68.121,-8.578C68.121,-9.906 68.004,-10.926 67.77,-11.637C67.535,-12.348 67.207,-12.902 66.785,-13.301C66.363,-13.699 65.828,-13.969 65.18,-14.109C64.695,-14.219 63.746,-14.273 62.332,-14.273L60.773,-14.273Z" style="fill-rule:nonzero;"/>
            <path d="M74.648,0L74.648,-17.18L87.387,-17.18L87.387,-14.273L78.117,-14.273L78.117,-10.465L86.742,-10.465L86.742,-7.57L78.117,-7.57L78.117,-2.895L87.715,-2.895L87.715,0L74.648,0Z" style="fill-rule:nonzero;"/>
            <rect x="97.219" y="-17.18" width="3.469" height="17.18"/>
            <path d="M103.945,0L103.945,-17.18L109.137,-17.18L112.254,-5.461L115.336,-17.18L120.539,-17.18L120.539,0L117.316,0L117.316,-13.523L113.906,0L110.566,0L107.168,-13.523L107.168,0L103.945,0Z" style="fill-rule:nonzero;"/>
            <path d="M123.984,0L123.984,-17.18L129.551,-17.18C131.66,-17.18 133.035,-17.094 133.676,-16.922C134.66,-16.664 135.484,-16.104 136.148,-15.24C136.813,-14.377 137.145,-13.262 137.145,-11.895C137.145,-10.84 136.953,-9.953 136.57,-9.234C136.188,-8.516 135.701,-7.951 135.111,-7.541C134.521,-7.131 133.922,-6.859 133.313,-6.727C132.484,-6.563 131.285,-6.48 129.715,-6.48L127.453,-6.48L127.453,0L123.984,0ZM127.453,-14.273L127.453,-9.398L129.352,-9.398C130.719,-9.398 131.633,-9.488 132.094,-9.668C132.555,-9.848 132.916,-10.129 133.178,-10.512C133.439,-10.895 133.57,-11.34 133.57,-11.848C133.57,-12.473 133.387,-12.988 133.02,-13.395C132.652,-13.801 132.188,-14.055 131.625,-14.156C131.211,-14.234 130.379,-14.273 129.129,-14.273L127.453,-14.273Z" style="fill-rule:nonzero;"/>
            <path d="M139.289,-8.484C139.289,-10.234 139.551,-11.703 140.074,-12.891C140.465,-13.766 140.998,-14.551 141.674,-15.246C142.35,-15.941 143.09,-16.457 143.895,-16.793C144.965,-17.246 146.199,-17.473 147.598,-17.473C150.129,-17.473 152.154,-16.688 153.674,-15.117C155.193,-13.547 155.953,-11.363 155.953,-8.566C155.953,-5.793 155.199,-3.623 153.691,-2.057C152.184,-0.49 150.168,0.293 147.645,0.293C145.09,0.293 143.059,-0.486 141.551,-2.045C140.043,-3.604 139.289,-5.75 139.289,-8.484ZM142.863,-8.602C142.863,-6.656 143.313,-5.182 144.211,-4.178C145.109,-3.174 146.25,-2.672 147.633,-2.672C149.016,-2.672 150.15,-3.17 151.037,-4.166C151.924,-5.162 152.367,-6.656 152.367,-8.648C152.367,-10.617 151.936,-12.086 151.072,-13.055C150.209,-14.023 149.063,-14.508 147.633,-14.508C146.203,-14.508 145.051,-14.018 144.176,-13.037C143.301,-12.057 142.863,-10.578 142.863,-8.602Z" style="fill-rule:nonzero;"/>
            <path d="M158.672,0L158.672,-17.18L165.973,-17.18C167.809,-17.18 169.143,-17.025 169.975,-16.717C170.807,-16.408 171.473,-15.859 171.973,-15.07C172.473,-14.281 172.723,-13.379 172.723,-12.363C172.723,-11.074 172.344,-10.01 171.586,-9.17C170.828,-8.33 169.695,-7.801 168.188,-7.582C168.938,-7.145 169.557,-6.664 170.045,-6.141C170.533,-5.617 171.191,-4.688 172.02,-3.352L174.117,0L169.969,0L167.461,-3.738C166.57,-5.074 165.961,-5.916 165.633,-6.264C165.305,-6.611 164.957,-6.85 164.59,-6.979C164.223,-7.107 163.641,-7.172 162.844,-7.172L162.141,-7.172L162.141,0L158.672,0ZM162.141,-9.914L164.707,-9.914C166.371,-9.914 167.41,-9.984 167.824,-10.125C168.238,-10.266 168.563,-10.508 168.797,-10.852C169.031,-11.195 169.148,-11.625 169.148,-12.141C169.148,-12.719 168.994,-13.186 168.686,-13.541C168.377,-13.896 167.941,-14.121 167.379,-14.215C167.098,-14.254 166.254,-14.273 164.848,-14.273L162.141,-14.273L162.141,-9.914Z" style="fill-rule:nonzero;"/>
            <path d="M179.859,0L179.859,-14.273L174.762,-14.273L174.762,-17.18L188.414,-17.18L188.414,-14.273L183.328,-14.273L183.328,0L179.859,0Z" style="fill-rule:nonzero;"/>
        </g>
        <g transform="matrix(1,0,0,1,387.615,327.462)">
            <path d="M17.238,0L13.465,0L11.965,-3.902L5.098,-3.902L3.68,0L0,0L6.691,-17.18L10.359,-17.18L17.238,0ZM10.852,-6.797L8.484,-13.172L6.164,-6.797L10.852,-6.797Z" style="fill-rule:nonzero;"/>
            <path d="M19.113,0L19.113,-17.18L22.488,-17.18L29.52,-5.707L29.52,-17.18L32.742,-17.18L32.742,0L29.262,0L22.336,-11.203L22.336,0L19.113,0Z" style="fill-rule:nonzero;"/>
            <path d="M47.402,-6.316L50.766,-5.25C50.25,-3.375 49.393,-1.982 48.193,-1.072C46.994,-0.162 45.473,0.293 43.629,0.293C41.348,0.293 39.473,-0.486 38.004,-2.045C36.535,-3.604 35.801,-5.734 35.801,-8.438C35.801,-11.297 36.539,-13.518 38.016,-15.1C39.492,-16.682 41.434,-17.473 43.84,-17.473C45.941,-17.473 47.648,-16.852 48.961,-15.609C49.742,-14.875 50.328,-13.82 50.719,-12.445L47.285,-11.625C47.082,-12.516 46.658,-13.219 46.014,-13.734C45.369,-14.25 44.586,-14.508 43.664,-14.508C42.391,-14.508 41.357,-14.051 40.564,-13.137C39.771,-12.223 39.375,-10.742 39.375,-8.695C39.375,-6.523 39.766,-4.977 40.547,-4.055C41.328,-3.133 42.344,-2.672 43.594,-2.672C44.516,-2.672 45.309,-2.965 45.973,-3.551C46.637,-4.137 47.113,-5.059 47.402,-6.316Z" style="fill-rule:nonzero;"/>
            <rect x="53.637" y="-17.18" width="3.469" height="17.18"/>
            <path d="M75.902,0L72.129,0L70.629,-3.902L63.762,-3.902L62.344,0L58.664,0L65.355,-17.18L69.023,-17.18L75.902,0ZM69.516,-6.797L67.148,-13.172L64.828,-6.797L69.516,-6.797Z" style="fill-rule:nonzero;"/>
        </g>
    </g>
    <g transform="matrix(6.12323e-17,1,-1,6.12323e-17,641.146,70.8512)">
        <path d="M177.901,195.851L304.549,268.971L304.549,415.212L177.901,488.333L51.252,415.212L51.252,268.971L177.901,195.851Z" style="fill:rgb(210,210,210);stroke:rgb(221,0,0);stroke-width:10px;"/>
    </g>
    <g transform="matrix(1.00864,0,0,1.02342,-10.8873,-1.51732)">
        <path d="M402.956,182.318C402.956,167.167 390.475,154.867 375.102,154.867L239.471,154.867C224.098,154.867 211.618,167.167 211.618,182.318L211.618,310.425C211.618,325.576 224.098,337.877 239.471,337.877L375.102,337.877C390.475,337.877 402.956,325.576 402.956,310.425L402.956,182.318Z" style="fill:rgb(220,0,0);"/>
    </g>
    <g transform="matrix(1,0,0,1,-6.1477,0)">
        <path d="M537.49,512.111C537.49,501.082 528.535,492.127 517.505,492.127L92.898,492.127C81.868,492.127 72.913,501.082 72.913,512.111L72.913,552.08C72.913,563.11 81.868,572.065 92.898,572.065L517.505,572.065C528.535,572.065 537.49,563.11 537.49,552.08L537.49,512.111Z" style="fill:rgb(255,248,46);"/>
    </g>
    <g transform="matrix(1,0,0,1,136.458,230.098)">
        <g>
            <g transform="matrix(1,0,0,1,57.794,327.462)">
                <path d="M2.023,-20.043L9.42,-20.043C11.088,-20.043 12.359,-19.915 13.234,-19.66C14.41,-19.314 15.417,-18.699 16.256,-17.814C17.094,-16.93 17.732,-15.848 18.17,-14.567C18.607,-13.287 18.826,-11.708 18.826,-9.83C18.826,-8.18 18.621,-6.758 18.211,-5.564C17.71,-4.106 16.994,-2.926 16.064,-2.023C15.363,-1.34 14.415,-0.807 13.221,-0.424C12.327,-0.141 11.133,0 9.639,0L2.023,0L2.023,-20.043ZM6.07,-16.652L6.07,-3.377L9.092,-3.377C10.222,-3.377 11.038,-3.441 11.539,-3.568C12.195,-3.732 12.74,-4.01 13.173,-4.402C13.606,-4.794 13.959,-5.439 14.232,-6.337C14.506,-7.235 14.643,-8.458 14.643,-10.008C14.643,-11.557 14.506,-12.747 14.232,-13.576C13.959,-14.406 13.576,-15.053 13.084,-15.518C12.592,-15.982 11.967,-16.297 11.211,-16.461C10.646,-16.589 9.538,-16.652 7.889,-16.652L6.07,-16.652Z" style="fill:rgb(220,0,0);fill-rule:nonzero;"/>
                <path d="M22.258,0L22.258,-20.043L37.119,-20.043L37.119,-16.652L26.305,-16.652L26.305,-12.209L36.367,-12.209L36.367,-8.832L26.305,-8.832L26.305,-3.377L37.502,-3.377L37.502,0L22.258,0Z" style="fill:rgb(220,0,0);fill-rule:nonzero;"/>
            </g>
            <g transform="matrix(1,0,0,1,103.43,327.462)">
                <path d="M20.111,0L15.709,0L13.959,-4.553L5.947,-4.553L4.293,0L0,0L7.807,-20.043L12.086,-20.043L20.111,0ZM12.66,-7.93L9.898,-15.367L7.191,-7.93L12.66,-7.93Z" style="fill:rgb(220,0,0);fill-rule:nonzero;"/>
                <path d="M35.082,-7.369L39.006,-6.125C38.404,-3.938 37.404,-2.313 36.005,-1.251C34.606,-0.189 32.831,0.342 30.68,0.342C28.018,0.342 25.831,-0.567 24.117,-2.386C22.404,-4.204 21.547,-6.69 21.547,-9.844C21.547,-13.18 22.408,-15.771 24.131,-17.616C25.854,-19.462 28.118,-20.385 30.926,-20.385C33.378,-20.385 35.369,-19.66 36.9,-18.211C37.812,-17.354 38.495,-16.124 38.951,-14.52L34.945,-13.563C34.708,-14.602 34.214,-15.422 33.462,-16.023C32.71,-16.625 31.796,-16.926 30.721,-16.926C29.235,-16.926 28.03,-16.393 27.104,-15.326C26.179,-14.26 25.717,-12.533 25.717,-10.145C25.717,-7.611 26.173,-5.806 27.084,-4.73C27.995,-3.655 29.18,-3.117 30.639,-3.117C31.714,-3.117 32.639,-3.459 33.414,-4.143C34.189,-4.826 34.745,-5.902 35.082,-7.369Z" style="fill:rgb(220,0,0);fill-rule:nonzero;"/>
                <path d="M55.303,-7.369L59.227,-6.125C58.625,-3.938 57.625,-2.313 56.226,-1.251C54.826,-0.189 53.051,0.342 50.9,0.342C48.239,0.342 46.051,-0.567 44.338,-2.386C42.624,-4.204 41.768,-6.69 41.768,-9.844C41.768,-13.18 42.629,-15.771 44.352,-17.616C46.074,-19.462 48.339,-20.385 51.146,-20.385C53.598,-20.385 55.59,-19.66 57.121,-18.211C58.033,-17.354 58.716,-16.124 59.172,-14.52L55.166,-13.563C54.929,-14.602 54.435,-15.422 53.683,-16.023C52.931,-16.625 52.017,-16.926 50.941,-16.926C49.456,-16.926 48.25,-16.393 47.325,-15.326C46.4,-14.26 45.938,-12.533 45.938,-10.145C45.938,-7.611 46.393,-5.806 47.305,-4.73C48.216,-3.655 49.401,-3.117 50.859,-3.117C51.935,-3.117 52.86,-3.459 53.635,-4.143C54.41,-4.826 54.965,-5.902 55.303,-7.369Z" style="fill:rgb(220,0,0);fill-rule:nonzero;"/>
                <rect x="62.576" y="-20.043" width="4.047" height="20.043" style="fill:rgb(220,0,0);"/>
                <path d="M70.465,-20.043L77.861,-20.043C79.529,-20.043 80.801,-19.915 81.676,-19.66C82.852,-19.314 83.859,-18.699 84.697,-17.814C85.536,-16.93 86.174,-15.848 86.611,-14.567C87.049,-13.287 87.268,-11.708 87.268,-9.83C87.268,-8.18 87.063,-6.758 86.652,-5.564C86.151,-4.106 85.436,-2.926 84.506,-2.023C83.804,-1.34 82.856,-0.807 81.662,-0.424C80.769,-0.141 79.575,0 78.08,0L70.465,0L70.465,-20.043ZM74.512,-16.652L74.512,-3.377L77.533,-3.377C78.663,-3.377 79.479,-3.441 79.98,-3.568C80.637,-3.732 81.181,-4.01 81.614,-4.402C82.047,-4.794 82.4,-5.439 82.674,-6.337C82.947,-7.235 83.084,-8.458 83.084,-10.008C83.084,-11.557 82.947,-12.747 82.674,-13.576C82.4,-14.406 82.018,-15.053 81.525,-15.518C81.033,-15.982 80.409,-16.297 79.652,-16.461C79.087,-16.589 77.98,-16.652 76.33,-16.652L74.512,-16.652Z" style="fill:rgb(220,0,0);fill-rule:nonzero;"/>
                <path d="M90.699,0L90.699,-20.043L105.561,-20.043L105.561,-16.652L94.746,-16.652L94.746,-12.209L104.809,-12.209L104.809,-8.832L94.746,-8.832L94.746,-3.377L105.943,-3.377L105.943,0L90.699,0Z" style="fill:rgb(220,0,0);fill-rule:nonzero;"/>
                <path d="M109.416,0L109.416,-20.043L113.354,-20.043L121.557,-6.658L121.557,-20.043L125.316,-20.043L125.316,0L121.256,0L113.176,-13.07L113.176,0L109.416,0Z" style="fill:rgb(220,0,0);fill-rule:nonzero;"/>
                <path d="M134.107,0L134.107,-16.652L128.16,-16.652L128.16,-20.043L144.088,-20.043L144.088,-16.652L138.154,-16.652L138.154,0L134.107,0Z" style="fill:rgb(220,0,0);fill-rule:nonzero;"/>
                <path d="M146.699,0L146.699,-20.043L161.561,-20.043L161.561,-16.652L150.746,-16.652L150.746,-12.209L160.809,-12.209L160.809,-8.832L150.746,-8.832L150.746,-3.377L161.943,-3.377L161.943,0L146.699,0Z" style="fill:rgb(220,0,0);fill-rule:nonzero;"/>
            </g>
        </g>
    </g>
    <g transform="matrix(1,0,0,1,152.355,524.068)">
        <g>
            <path d="M2.037,0L2.037,-20.043L16.898,-20.043L16.898,-16.652L6.084,-16.652L6.084,-12.209L16.146,-12.209L16.146,-8.832L6.084,-8.832L6.084,-3.377L17.281,-3.377L17.281,0L2.037,0Z" style="fill:rgb(220,0,0);fill-rule:nonzero;"/>
            <path d="M19.688,-6.521L23.625,-6.904C23.862,-5.583 24.343,-4.612 25.067,-3.992C25.792,-3.372 26.77,-3.063 28,-3.063C29.303,-3.063 30.285,-3.338 30.946,-3.89C31.607,-4.441 31.938,-5.086 31.938,-5.824C31.938,-6.298 31.799,-6.701 31.521,-7.034C31.243,-7.367 30.757,-7.656 30.064,-7.902C29.59,-8.066 28.51,-8.358 26.824,-8.777C24.655,-9.315 23.133,-9.976 22.258,-10.76C21.027,-11.863 20.412,-13.207 20.412,-14.793C20.412,-15.814 20.701,-16.769 21.28,-17.657C21.859,-18.546 22.693,-19.223 23.782,-19.688C24.871,-20.152 26.186,-20.385 27.727,-20.385C30.242,-20.385 32.136,-19.833 33.407,-18.73C34.679,-17.628 35.346,-16.156 35.41,-14.314L31.363,-14.137C31.19,-15.167 30.819,-15.907 30.249,-16.358C29.679,-16.81 28.825,-17.035 27.686,-17.035C26.51,-17.035 25.589,-16.794 24.924,-16.311C24.495,-16.001 24.281,-15.586 24.281,-15.066C24.281,-14.592 24.482,-14.187 24.883,-13.85C25.393,-13.421 26.633,-12.975 28.602,-12.51C30.57,-12.045 32.026,-11.564 32.97,-11.067C33.913,-10.571 34.651,-9.892 35.185,-9.03C35.718,-8.169 35.984,-7.105 35.984,-5.838C35.984,-4.689 35.665,-3.614 35.027,-2.611C34.389,-1.609 33.487,-0.864 32.32,-0.376C31.154,0.112 29.7,0.355 27.959,0.355C25.425,0.355 23.479,-0.23 22.121,-1.401C20.763,-2.573 19.952,-4.279 19.688,-6.521Z" style="fill:rgb(220,0,0);fill-rule:nonzero;"/>
            <path d="M52.213,-7.369L56.137,-6.125C55.535,-3.938 54.535,-2.313 53.136,-1.251C51.737,-0.189 49.962,0.342 47.811,0.342C45.149,0.342 42.962,-0.567 41.248,-2.386C39.535,-4.204 38.678,-6.69 38.678,-9.844C38.678,-13.18 39.539,-15.771 41.262,-17.616C42.984,-19.462 45.249,-20.385 48.057,-20.385C50.508,-20.385 52.5,-19.66 54.031,-18.211C54.943,-17.354 55.626,-16.124 56.082,-14.52L52.076,-13.563C51.839,-14.602 51.345,-15.422 50.593,-16.023C49.841,-16.625 48.927,-16.926 47.852,-16.926C46.366,-16.926 45.16,-16.393 44.235,-15.326C43.31,-14.26 42.848,-12.533 42.848,-10.145C42.848,-7.611 43.303,-5.806 44.215,-4.73C45.126,-3.655 46.311,-3.117 47.77,-3.117C48.845,-3.117 49.77,-3.459 50.545,-4.143C51.32,-4.826 51.876,-5.902 52.213,-7.369Z" style="fill:rgb(220,0,0);fill-rule:nonzero;"/>
            <path d="M77.684,0L73.281,0L71.531,-4.553L63.52,-4.553L61.865,0L57.572,0L65.379,-20.043L69.658,-20.043L77.684,0ZM70.232,-7.93L67.471,-15.367L64.764,-7.93L70.232,-7.93Z" style="fill:rgb(220,0,0);fill-rule:nonzero;"/>
            <path d="M79.871,0L79.871,-20.043L83.809,-20.043L92.012,-6.658L92.012,-20.043L95.771,-20.043L95.771,0L91.711,0L83.631,-13.07L83.631,0L79.871,0Z" style="fill:rgb(220,0,0);fill-rule:nonzero;"/>
            <path d="M100.051,0L100.051,-20.043L114.912,-20.043L114.912,-16.652L104.098,-16.652L104.098,-12.209L114.16,-12.209L114.16,-8.832L104.098,-8.832L104.098,-3.377L115.295,-3.377L115.295,0L100.051,0Z" style="fill:rgb(220,0,0);fill-rule:nonzero;"/>
            <path d="M136.801,0L132.398,0L130.648,-4.553L122.637,-4.553L120.982,0L116.689,0L124.496,-20.043L128.775,-20.043L136.801,0ZM129.35,-7.93L126.588,-15.367L123.881,-7.93L129.35,-7.93Z" style="fill:rgb(220,0,0);fill-rule:nonzero;"/>
            <path d="M138.961,0L138.961,-20.043L147.479,-20.043C149.62,-20.043 151.177,-19.863 152.147,-19.503C153.118,-19.143 153.895,-18.503 154.479,-17.582C155.062,-16.661 155.354,-15.609 155.354,-14.424C155.354,-12.92 154.911,-11.678 154.027,-10.698C153.143,-9.718 151.822,-9.101 150.063,-8.846C150.938,-8.335 151.66,-7.775 152.229,-7.164C152.799,-6.553 153.567,-5.469 154.533,-3.91L156.98,0L152.141,0L149.215,-4.361C148.176,-5.92 147.465,-6.902 147.082,-7.308C146.699,-7.713 146.294,-7.991 145.865,-8.142C145.437,-8.292 144.758,-8.367 143.828,-8.367L143.008,-8.367L143.008,0L138.961,0ZM143.008,-11.566L146.002,-11.566C147.943,-11.566 149.156,-11.648 149.639,-11.813C150.122,-11.977 150.5,-12.259 150.773,-12.66C151.047,-13.061 151.184,-13.563 151.184,-14.164C151.184,-14.839 151.004,-15.383 150.644,-15.798C150.284,-16.213 149.775,-16.475 149.119,-16.584C148.791,-16.63 147.807,-16.652 146.166,-16.652L143.008,-16.652L143.008,-11.566Z" style="fill:rgb(220,0,0);fill-rule:nonzero;"/>
            <path d="M166.947,0L166.947,-20.043L181.809,-20.043L181.809,-16.652L170.994,-16.652L170.994,-12.209L181.057,-12.209L181.057,-8.832L170.994,-8.832L170.994,-3.377L182.191,-3.377L182.191,0L166.947,0Z" style="fill:rgb(220,0,0);fill-rule:nonzero;"/>
            <path d="M185.664,0L185.664,-20.043L189.602,-20.043L197.805,-6.658L197.805,-20.043L201.564,-20.043L201.564,0L197.504,0L189.424,-13.07L189.424,0L185.664,0Z" style="fill:rgb(220,0,0);fill-rule:nonzero;"/>
            <path d="M226.447,-7.369L230.371,-6.125C229.77,-3.938 228.769,-2.313 227.37,-1.251C225.971,-0.189 224.196,0.342 222.045,0.342C219.383,0.342 217.196,-0.567 215.482,-2.386C213.769,-4.204 212.912,-6.69 212.912,-9.844C212.912,-13.18 213.773,-15.771 215.496,-17.616C217.219,-19.462 219.484,-20.385 222.291,-20.385C224.743,-20.385 226.734,-19.66 228.266,-18.211C229.177,-17.354 229.861,-16.124 230.316,-14.52L226.311,-13.563C226.074,-14.602 225.579,-15.422 224.827,-16.023C224.075,-16.625 223.161,-16.926 222.086,-16.926C220.6,-16.926 219.395,-16.393 218.47,-15.326C217.545,-14.26 217.082,-12.533 217.082,-10.145C217.082,-7.611 217.538,-5.806 218.449,-4.73C219.361,-3.655 220.546,-3.117 222.004,-3.117C223.079,-3.117 224.005,-3.459 224.779,-4.143C225.554,-4.826 226.11,-5.902 226.447,-7.369Z" style="fill:rgb(220,0,0);fill-rule:nonzero;"/>
            <path d="M251.918,0L247.516,0L245.766,-4.553L237.754,-4.553L236.1,0L231.807,0L239.613,-20.043L243.893,-20.043L251.918,0ZM244.467,-7.93L241.705,-15.367L238.998,-7.93L244.467,-7.93Z" style="fill:rgb(220,0,0);fill-rule:nonzero;"/>
            <path d="M253.039,-6.521L256.977,-6.904C257.214,-5.583 257.694,-4.612 258.419,-3.992C259.144,-3.372 260.121,-3.063 261.352,-3.063C262.655,-3.063 263.637,-3.338 264.298,-3.89C264.959,-4.441 265.289,-5.086 265.289,-5.824C265.289,-6.298 265.15,-6.701 264.872,-7.034C264.594,-7.367 264.109,-7.656 263.416,-7.902C262.942,-8.066 261.862,-8.358 260.176,-8.777C258.007,-9.315 256.484,-9.976 255.609,-10.76C254.379,-11.863 253.764,-13.207 253.764,-14.793C253.764,-15.814 254.053,-16.769 254.632,-17.657C255.211,-18.546 256.045,-19.223 257.134,-19.688C258.223,-20.152 259.538,-20.385 261.078,-20.385C263.594,-20.385 265.487,-19.833 266.759,-18.73C268.03,-17.628 268.698,-16.156 268.762,-14.314L264.715,-14.137C264.542,-15.167 264.17,-15.907 263.601,-16.358C263.031,-16.81 262.176,-17.035 261.037,-17.035C259.861,-17.035 258.941,-16.794 258.275,-16.311C257.847,-16.001 257.633,-15.586 257.633,-15.066C257.633,-14.592 257.833,-14.187 258.234,-13.85C258.745,-13.421 259.984,-12.975 261.953,-12.51C263.922,-12.045 265.378,-11.564 266.321,-11.067C267.265,-10.571 268.003,-9.892 268.536,-9.03C269.069,-8.169 269.336,-7.105 269.336,-5.838C269.336,-4.689 269.017,-3.614 268.379,-2.611C267.741,-1.609 266.839,-0.864 265.672,-0.376C264.505,0.112 263.051,0.355 261.311,0.355C258.777,0.355 256.831,-0.23 255.473,-1.401C254.115,-2.573 253.303,-4.279 253.039,-6.521Z" style="fill:rgb(220,0,0);fill-rule:nonzero;"/>
            <path d="M271.92,-9.898C271.92,-11.94 272.225,-13.654 272.836,-15.039C273.292,-16.06 273.914,-16.976 274.702,-17.787C275.491,-18.598 276.354,-19.2 277.293,-19.592C278.542,-20.12 279.982,-20.385 281.613,-20.385C284.566,-20.385 286.929,-19.469 288.702,-17.637C290.475,-15.805 291.361,-13.257 291.361,-9.994C291.361,-6.758 290.482,-4.227 288.723,-2.399C286.964,-0.572 284.612,0.342 281.668,0.342C278.688,0.342 276.318,-0.567 274.559,-2.386C272.799,-4.204 271.92,-6.708 271.92,-9.898ZM276.09,-10.035C276.09,-7.766 276.614,-6.045 277.662,-4.874C278.71,-3.703 280.041,-3.117 281.654,-3.117C283.268,-3.117 284.591,-3.698 285.626,-4.86C286.66,-6.022 287.178,-7.766 287.178,-10.09C287.178,-12.387 286.674,-14.1 285.667,-15.23C284.66,-16.361 283.322,-16.926 281.654,-16.926C279.986,-16.926 278.642,-16.354 277.621,-15.21C276.6,-14.066 276.09,-12.341 276.09,-10.035Z" style="fill:rgb(220,0,0);fill-rule:nonzero;"/>
        </g>
    </g>
</svg>
